<?xml version="1.0" encoding="UTF-8" standalone="no"?>
<!-- Created with Inkscape (http://www.inkscape.org/) -->

<svg
   xmlns:dc="http://purl.org/dc/elements/1.1/"
   xmlns:cc="http://creativecommons.org/ns#"
   xmlns:rdf="http://www.w3.org/1999/02/22-rdf-syntax-ns#"
   xmlns:svg="http://www.w3.org/2000/svg"
   xmlns="http://www.w3.org/2000/svg"
   xmlns:xlink="http://www.w3.org/1999/xlink"
   xmlns:sodipodi="http://sodipodi.sourceforge.net/DTD/sodipodi-0.dtd"
   xmlns:inkscape="http://www.inkscape.org/namespaces/inkscape"
   width="36"
   height="32"
   id="svg3484"
   version="1.1"
   inkscape:version="0.48.2 r9819"
   sodipodi:docname="tyreLabelItemFuel.svg">
  <defs
     id="defs3486">
    <clipPath
       id="SVGID_16_">
      <rect
         y="0"
         x="0"
         height="875.5"
         width="596.92999"
         id="use229" />
    </clipPath>
    <clipPath
       id="clipPath3601">
      <rect
         y="0"
         x="0"
         height="875.5"
         width="596.92999"
         id="use3603" />
    </clipPath>
    <clipPath
       id="SVGID_16_-1">
      <rect
         y="0"
         x="0"
         height="875.5"
         width="596.92999"
         id="use229-7" />
    </clipPath>
    <clipPath
       id="clipPath3601-4">
      <rect
         y="0"
         x="0"
         height="875.5"
         width="596.92999"
         id="use3603-0" />
    </clipPath>
    <clipPath
       id="SVGID_16_-8">
      <rect
         y="0"
         x="0"
         height="875.5"
         width="596.92999"
         id="use229-8" />
    </clipPath>
    <clipPath
       id="clipPath3653">
      <rect
         y="0"
         x="0"
         height="875.5"
         width="596.92999"
         id="use3655" />
    </clipPath>
    <clipPath
       id="clipPath3657">
      <rect
         y="0"
         x="0"
         height="875.5"
         width="596.92999"
         id="use3659" />
    </clipPath>
    <clipPath
       id="clipPath3661">
      <rect
         y="0"
         x="0"
         height="875.5"
         width="596.92999"
         id="use3663" />
    </clipPath>
    <clipPath
       id="clipPath3665">
      <rect
         y="0"
         x="0"
         height="875.5"
         width="596.92999"
         id="use3667" />
    </clipPath>
    <clipPath
       id="SVGID_20_">
      <rect
         height="875.5"
         width="596.92999"
         id="use271"
         x="0"
         y="0" />
    </clipPath>
    <clipPath
       id="clipPath3952">
      <rect
         height="875.5"
         width="596.92999"
         id="use3954"
         x="0"
         y="0" />
    </clipPath>
    <clipPath
       id="clipPath3956">
      <rect
         height="875.5"
         width="596.92999"
         id="use3958"
         x="0"
         y="0" />
    </clipPath>
    <clipPath
       id="clipPath3960">
      <rect
         height="875.5"
         width="596.92999"
         id="use3962"
         x="0"
         y="0" />
    </clipPath>
    <clipPath
       id="clipPath3964">
      <rect
         height="875.5"
         width="596.92999"
         id="use3966"
         x="0"
         y="0" />
    </clipPath>
    <clipPath
       id="clipPath3968">
      <rect
         height="875.5"
         width="596.92999"
         id="use3970"
         x="0"
         y="0" />
    </clipPath>
    <clipPath
       id="SVGID_16_-4">
      <use
         xlink:href="#SVGID_15_"
         overflow="visible"
         id="use229-2"
         style="overflow:visible"
         x="0"
         y="0"
         width="596.92999"
         height="875.5" />
    </clipPath>
    <clipPath
       id="clipPath3974">
      <use
         xlink:href="#SVGID_15_"
         overflow="visible"
         id="use3976"
         style="overflow:visible"
         x="0"
         y="0"
         width="596.92999"
         height="875.5" />
    </clipPath>
    <clipPath
       id="clipPath3978">
      <use
         xlink:href="#SVGID_15_"
         overflow="visible"
         id="use3980"
         style="overflow:visible"
         x="0"
         y="0"
         width="596.92999"
         height="875.5" />
    </clipPath>
    <clipPath
       id="clipPath3982">
      <use
         xlink:href="#SVGID_15_"
         overflow="visible"
         id="use3984"
         style="overflow:visible"
         x="0"
         y="0"
         width="596.92999"
         height="875.5" />
    </clipPath>
    <clipPath
       id="clipPath3986">
      <use
         xlink:href="#SVGID_15_"
         overflow="visible"
         id="use3988"
         style="overflow:visible"
         x="0"
         y="0"
         width="596.92999"
         height="875.5" />
    </clipPath>
    <clipPath
       id="SVGID_18_">
      <use
         xlink:href="#SVGID_17_"
         overflow="visible"
         id="use249"
         style="overflow:visible"
         x="0"
         y="0"
         width="596.92999"
         height="875.5" />
    </clipPath>
    <clipPath
       id="clipPath3992">
      <use
         xlink:href="#SVGID_17_"
         overflow="visible"
         id="use3994"
         style="overflow:visible"
         x="0"
         y="0"
         width="596.92999"
         height="875.5" />
    </clipPath>
    <clipPath
       id="clipPath3996">
      <use
         xlink:href="#SVGID_17_"
         overflow="visible"
         id="use3998"
         style="overflow:visible"
         x="0"
         y="0"
         width="596.92999"
         height="875.5" />
    </clipPath>
    <clipPath
       id="clipPath4000">
      <use
         xlink:href="#SVGID_17_"
         overflow="visible"
         id="use4002"
         style="overflow:visible"
         x="0"
         y="0"
         width="596.92999"
         height="875.5" />
    </clipPath>
    <clipPath
       id="clipPath4004">
      <use
         xlink:href="#SVGID_17_"
         overflow="visible"
         id="use4006"
         style="overflow:visible"
         x="0"
         y="0"
         width="596.92999"
         height="875.5" />
    </clipPath>
    <clipPath
       id="clipPath4008">
      <use
         xlink:href="#SVGID_17_"
         overflow="visible"
         id="use4010"
         style="overflow:visible"
         x="0"
         y="0"
         width="596.92999"
         height="875.5" />
    </clipPath>
  </defs>
  <sodipodi:namedview
     id="base"
     pagecolor="#ffffff"
     bordercolor="#666666"
     borderopacity="1.0"
     inkscape:pageopacity="0.0"
     inkscape:pageshadow="2"
     inkscape:zoom="14.142136"
     inkscape:cx="41.405494"
     inkscape:cy="5.1869564"
     inkscape:document-units="px"
     inkscape:current-layer="layer1"
     showgrid="false"
     inkscape:window-width="1912"
     inkscape:window-height="1025"
     inkscape:window-x="0"
     inkscape:window-y="0"
     inkscape:window-maximized="0" />
  <metadata
     id="metadata3489">
    <rdf:RDF>
      <cc:Work
         rdf:about="">
        <dc:format>image/svg+xml</dc:format>
        <dc:type
           rdf:resource="http://purl.org/dc/dcmitype/StillImage" />
        <dc:title />
      </cc:Work>
    </rdf:RDF>
  </metadata>
  <g
     inkscape:label="Layer 1"
     inkscape:groupmode="layer"
     id="layer1"
     transform="translate(0,-1020.3621)">
    <g
       transform="matrix(0.20459387,0,0,0.20459387,-29.240281,1006.4539)"
       id="g223">
      <defs
         id="defs225">
        <rect
           id="SVGID_15_"
           width="596.92999"
           height="875.5"
           x="0"
           y="0" />
      </defs>
      <clipPath
         id="clipPath4015">
        <use
           xlink:href="#SVGID_15_"
           overflow="visible"
           id="use4017"
           style="overflow:visible"
           x="0"
           y="0"
           width="596.92999"
           height="875.5" />
      </clipPath>
      <path
         clip-path="url(#SVGID_16_-4)"
         d="m 153.455,209.126 0,0 m 25.846,-101.667 c 2.454,-2.073 4.914,-3.471 7.373,-4.286 -0.702,0.015 -1.361,0.109 -2.069,0.129 -2.959,0.085 -5.826,0.268 -8.613,0.537 -0.804,0.079 -1.722,0.059 -2.483,0.154 l -0.997,0.179 c -1.466,0.167 -0.826,0.104 -2.118,0.346 -0.219,0.037 -0.44,0.118 -0.659,0.161 2.414,-0.188 10.223,-0.686 10.223,-0.686 -1.912,0.674 -3.776,1.569 -5.511,2.679 l -12,1.368 c -0.5,0.381 -1.006,0.743 -1.5,1.179 -0.407,0.362 -0.783,0.797 -1.181,1.188 l 0.211,-0.021 11.261,-1.256 c -1.373,1.181 -2.69,2.494 -3.936,3.951 l -10.902,1.246 c -0.126,0.172 -0.236,0.371 -0.36,0.544 -0.192,0.27 -0.368,0.565 -0.557,0.843 -0.628,0.909 -1.271,1.793 -1.851,2.805 l 0.26,-0.026 10.065,-1.034 c -1.087,1.641 -2.098,3.407 -3.06,5.24 l -9.886,1.037 h -0.003 c -0.686,1.53 -1.326,3.13 -1.929,4.788 l 0.147,-0.015 9.331,-0.781 c -0.823,1.958 -1.572,3.993 -2.258,6.095 l -9.165,0.785 c -0.547,1.958 -1.05,3.958 -1.484,6.033 l 0.053,-0.003 8.819,-0.613 c -0.545,2.205 -1.037,4.439 -1.433,6.74 l -8.659,0.608 c -0.202,1.39 -0.332,2.825 -0.48,4.249 -0.062,0.592 -0.144,1.171 -0.195,1.766 -0.024,0.236 -0.059,0.46 -0.08,0.696 h 0.042 c -0.029,0.331 -0.029,0.67 -0.05,1.005 l 8.404,-0.339 c -0.177,1.92 -0.326,3.854 -0.404,5.8 l -8.292,0.262 c 0,0.003 0,0.003 0,0.003 l -0.086,0.003 c -0.021,0.611 0.002,1.229 -0.007,1.841 -0.017,1.002 -0.017,1.991 -0.008,2.996 0.005,0.655 -0.022,1.299 -0.006,1.955 h 0.094 c 0.021,0.936 0.091,1.871 0.126,2.803 h 8.294 c 0.065,1.308 0.1,2.62 0.22,3.93 h -8.377 c 0.018,0.204 0.048,0.407 0.064,0.611 0.062,0.705 0.155,1.396 0.23,2.098 0.118,1.141 0.216,2.286 0.372,3.424 l 0.132,0.014 c 0.137,1.002 0.26,2.007 0.394,3.013 l 8.574,0.958 c 0.225,1.232 0.477,2.462 0.758,3.678 l -8.734,-0.946 c -0.006,-0.018 -0.014,-0.048 -0.017,-0.068 -0.018,-0.081 -0.026,-0.162 -0.04,-0.242 0.017,0.096 0.027,0.195 0.045,0.292 0.07,0.34 0.168,0.638 0.241,0.972 0.365,1.68 0.75,3.331 1.185,4.903 l 0.029,0.003 c 0.362,1.316 0.793,2.519 1.207,3.753 l 8.819,1.109 c 0.255,0.771 0.514,1.549 0.777,2.299 l -8.887,-1.083 c 0.085,0.227 0.18,0.429 0.268,0.657 0.356,0.94 0.729,1.84 1.112,2.732 0.193,0.454 0.365,0.952 0.565,1.389 l 0.081,0.012 c 0.634,1.381 1.328,2.619 2.022,3.861 l 8.642,1.24 c 0.246,0.485 0.495,0.989 0.752,1.455 l -8.761,-1.351 c 0.198,0.328 0.416,0.587 0.616,0.904 0.652,1.039 1.311,2.027 2.002,2.945 0.115,0.155 0.219,0.345 0.337,0.497 l 0.067,0.012 c 0.786,1.013 1.618,1.842 2.44,2.698 l 8.215,1.382 c 0.376,0.432 0.748,0.865 1.133,1.249 l -8.365,-1.454 c 0.177,0.168 0.365,0.268 0.545,0.428 0.895,0.804 1.8,1.524 2.725,2.142 0.187,0.123 0.364,0.315 0.548,0.43 0.141,0.086 0.288,0.092 0.427,0.174 1.703,1.011 3.434,1.822 5.183,2.182 0.522,0.126 1.053,0.225 1.611,0.266 1.912,0.144 6.277,0.658 10.052,1.073 -7.825,-4.232 -14.754,-17.139 -18.701,-35.643 -6.644,-31.203 0.961,-67.441 17.011,-80.952 m 34.262,88.378 c 5.199,-7.696 7.542,-28.299 5.222,-46.034 -2.313,-17.729 -8.416,-25.865 -13.609,-18.174 -5.202,7.684 -7.542,28.296 -5.227,46.025 2.318,17.726 8.41,25.868 13.614,18.183 m 2.995,8.196 c -6.531,9.65 -14.182,-0.575 -17.082,-22.822 -2.916,-22.257 0.026,-48.127 6.556,-57.777 6.522,-9.663 14.173,0.561 17.079,22.815 2.911,22.259 -0.022,48.13 -6.553,57.784 m -5.959,-97.762 c -1.407,-0.199 -4.326,0.241 -6.452,1.765 l -11.525,-1.364 c 1.318,-1.149 1.954,-1.564 3.291,-2.202 l 14.686,1.801 z m -20.427,2.859 11.634,1.21 c -0.356,0.324 -0.722,0.648 -1.073,1.019 -0.847,0.873 -1.657,1.867 -2.442,2.931 l -11.145,-1.209 c 0.96,-1.457 1.976,-2.759 3.026,-3.951 m 5.682,9.382 c -0.896,1.626 -1.744,3.373 -2.532,5.24 l -11.089,-1.053 c 0.738,-1.828 1.508,-3.596 2.347,-5.24 l 11.274,1.053 z m -4.184,10.05 c -0.655,1.944 -1.25,3.984 -1.797,6.096 l -11.201,-0.834 c 0.528,-2.105 1.109,-4.134 1.747,-6.095 l 11.251,0.833 z m -14.376,11.464 11.396,0.646 c -0.436,2.193 -0.817,4.439 -1.138,6.733 l -11.362,-0.639 c 0.306,-2.301 0.688,-4.536 1.104,-6.74 m -1.873,14.7 11.363,0.401 c -0.141,1.882 -0.269,3.771 -0.341,5.681 l -11.328,-0.253 c 0.054,-1.963 0.172,-3.905 0.306,-5.829 m -0.203,15.687 h 11.231 c 0.046,1.308 0.066,2.62 0.141,3.93 h -11.192 c -0.092,-1.31 -0.124,-2.622 -0.18,-3.93 m 1.368,14.308 10.875,-0.915 c 0.151,1.118 0.272,2.254 0.466,3.366 l -10.813,0.964 c -0.016,-0.09 -0.035,-0.163 -0.048,-0.254 -0.193,-1.038 -0.319,-2.114 -0.48,-3.161 m 2.755,13.46 10.419,-1.126 c 0.174,0.702 0.343,1.407 0.517,2.09 l -10.393,1.069 c -0.183,-0.656 -0.363,-1.356 -0.543,-2.033 m 3.588,10.982 10.033,-1.339 c 0.171,0.455 0.345,0.926 0.522,1.371 l -10.014,1.283 c -0.184,-0.429 -0.358,-0.879 -0.541,-1.315 m 4.763,8.838 9.454,-1.378 c 0.203,0.306 0.403,0.625 0.613,0.904 l -9.482,1.286 c -0.202,-0.25 -0.392,-0.544 -0.585,-0.812 m 45.367,-76.29 c -2.084,-12.612 -5.757,-22.055 -10.208,-28.081 -4.452,-6.022 -7.997,-7.533 -8.23,-7.657 h -0.007 c 0.003,0.003 0.004,0.003 0.007,0.003 h -0.024 l -16.036,-2.182 c 0,0 0.54,-0.404 2.241,-0.632 0.003,0 0.003,0 0.003,0 -0.312,0 -0.596,-0.02 -0.908,-0.02 -1.818,0 -4.096,-0.021 -6.586,-0.021 l 0,0 c -0.041,0.01 -0.075,0.031 -0.112,0.04 -0.009,0 -0.015,0 -0.023,0 -2.867,0.701 -5.663,2.06 -8.264,4.243 -16.055,13.506 -23.655,49.753 -17.007,80.95 4.029,18.92 11.266,31.923 19.431,35.901 0.249,0.042 0.406,0.048 0.435,0.045 7.794,0.126 19.807,-0.121 26.728,-2.055 2.706,-0.755 4.776,-2.43 6.058,-3.772 11.799,-12.812 17.399,-47.184 12.502,-76.762"
         id="path239"
         inkscape:connector-curvature="0"
         style="fill:#0091d2" />
    </g>
    <polygon
       style="fill:#ffffff"
       transform="matrix(0.20459387,0,0,0.20459387,-29.240281,1006.4539)"
       points="212.891,64.691 212.891,158.704 296.714,158.704 "
       id="polygon241" />
    <g
       transform="matrix(0.20459387,0,0,0.20459387,-29.240281,1006.4539)"
       id="g243">
      <defs
         id="defs245">
        <rect
           id="SVGID_17_"
           width="596.92999"
           height="875.5"
           x="0"
           y="0" />
      </defs>
      <clipPath
         id="clipPath4028">
        <use
           xlink:href="#SVGID_17_"
           overflow="visible"
           id="use4030"
           style="overflow:visible"
           x="0"
           y="0"
           width="596.92999"
           height="875.5" />
      </clipPath>
      <path
         clip-path="url(#SVGID_18_)"
         d="M 266.476,95.484 H 240.45 V 77.672 h 26.026 v 17.812 z m 27.419,-4.088 2.499,-2.5 c 0,0 -5.097,-11.133 -20.583,-16.086 v 5.192 c 0,0 8.813,3.459 13.269,17.283 0.283,0.957 0.575,1.965 0.873,3.046 1.545,5.598 3.056,12.587 3.041,17.538 0,0.583 -0.023,1.145 -0.064,1.683 -0.845,8.415 -3.141,9.538 -4.933,9.603 -1.249,-0.033 -2.277,-0.437 -3.343,-1.863 -1.046,-1.438 -1.975,-4.125 -1.972,-8.404 v -9.396 c 0.034,-3.607 -1.316,-6.881 -3.85,-8.97 -1.892,-1.576 -4.954,-2.452 -7.565,-2.789 V 78.031 c 0,-2.92 -2.371,-5.285 -5.287,-5.285 h -25.026 c -2.923,0 -5.288,2.365 -5.288,5.285 v 54.241 h -2.715 v 5.924 h 41.032 v -5.924 h -2.716 v -30.698 c 1.384,0.28 3.169,0.752 3.88,1.353 1.098,0.953 1.762,2.208 1.794,4.565 v 9.396 c 0.006,5.065 1.056,8.951 3.047,11.748 1.968,2.808 5.034,4.296 8.01,4.266 h 0.099 c 5.527,0 9.976,-5.187 10.564,-14.916 0.046,-0.69 0.078,-1.393 0.078,-2.116 -0.047,-7.99 -2.947,-18.44 -4.844,-24.474"
         id="path251"
         inkscape:connector-curvature="0"
         style="fill:#0091d2" />
    </g>
  </g>
</svg>
